<svg height="512" viewBox="0 0 64 64" width="512" xmlns="http://www.w3.org/2000/svg"><g id="Fill_Outline" data-name="Fill Outline"><g id="Stroke_copy" data-name="Stroke copy"><g><g><path d="m35 38h18a8 8 0 0 1 8 8v15a0 0 0 0 1 0 0h-34a0 0 0 0 1 0 0v-15a8 8 0 0 1 8-8z" fill="#f8664f"/><g fill="#cc5144"><path d="m55 55v-5a2 2 0 0 0 -2 2v3h-4a14 14 0 0 1 -14-14v-3a8 8 0 0 0 -8 8v15h34v-6z"/><path d="m50.356 44.3-3.356 4.7-3-5 6-4a3.339 3.339 0 0 1 .356 4.3z"/><path d="m37.644 44.3 3.356 4.7 3-5-6-4a3.339 3.339 0 0 0 -.356 4.3z"/></g><path d="m50 39-6 5-6-5v-7h12z" fill="#fcbc04"/><path d="m50 32v3.01a10.034 10.034 0 0 1 -7.99 3.99 9.856 9.856 0 0 0 5.61 1.99l-3.62 3.01-6-5v-7z" fill="#e59730"/><path d="m50.356 43.3-3.356 4.7-3-4 6-5a3.339 3.339 0 0 1 .356 4.3z" fill="#f89c8d"/><path d="m37.644 43.3 3.356 4.7 3-4-6-5a3.339 3.339 0 0 0 -.356 4.3z" fill="#f89c8d"/><path d="m54 19v8a10 10 0 0 1 -10 10 10 10 0 0 1 -10-10v-8z" fill="#f9e109"/><path d="m56 19h-27a2 2 0 0 1 -2-2 2 2 0 0 1 2-2h27z" fill="#f89c8d"/><path d="m40 3h8a8 8 0 0 1 8 8v4a0 0 0 0 1 0 0h-24a0 0 0 0 1 0 0v-4a8 8 0 0 1 8-8z" fill="#f8664f"/><path d="m38.59 22.59a1.955 1.955 0 0 0 -.59 1.41 10 10 0 0 0 10 10 9.85 9.85 0 0 0 3.81-.76 10 10 0 0 1 -17.81-6.24v-8h20v3h-14a1.955 1.955 0 0 0 -1.41.59z" fill="#fcbc04"/><path d="m56 17v2h-27a2.006 2.006 0 0 1 -2-2 2.015 2.015 0 0 1 2-2 2.006 2.006 0 0 0 2 2z" fill="#f8664f"/><path d="m56 12v3h-24v-4a8 8 0 0 1 5.49-7.6 12 12 0 0 0 11.51 8.6z" fill="#cc5144"/><path d="m40 7h8v4h-8z" fill="#f9e109"/><path d="m44.21 11h-4.21v-3.08a11.633 11.633 0 0 0 4.21 3.08z" fill="#fcbc04"/></g><g><path d="m23 53h-10a4 4 0 0 1 -4-4h10a4 4 0 0 1 4 4z" fill="#fcbc04"/><path d="m23 53h-6l3 8h7z" fill="#cc5144"/></g><g><path d="m7 23h18a4 4 0 0 1 4 4v18a4 4 0 0 1 -4 4h-17a5 5 0 0 1 -5-5v-17a4 4 0 0 1 4-4z" fill="#a1d51c"/><path d="m29 42v3a4 4 0 0 1 -4 4h-17a5 5 0 0 1 -5-5v-17a4 4 0 0 1 4-4h4v3a16 16 0 0 0 16 16z" fill="#7ab92d"/><g><path d="m11 32a9 9 0 0 0 9 9l5-13z" fill="#f7f754"/><path d="m25 28-5 13a9 9 0 0 1 -9-9l.88-.25a5.375 5.375 0 0 0 1.67 1.83 2.464 2.464 0 0 0 .34.22 5.077 5.077 0 0 0 .81.4c.01 0 .01 0 .02.01a6 6 0 0 0 5.38-.52c.13-.08.24-.16.36-.25a5.087 5.087 0 0 0 .65-.58 6.01 6.01 0 0 0 1.24-1.98l.92-2.39z" fill="#f9e109"/><path d="m11 32a9 9 0 0 0 9 9v1.813a2 2 0 0 1 -2.337 1.978 13.016 13.016 0 0 1 -10.454-10.454 2 2 0 0 1 1.973-2.337z" fill="#e59730"/><path d="m25 28-1.52 3.95a2.968 2.968 0 0 1 -2.47-2.81z" fill="#f89c8d"/><path d="m21.4 37.35-1.4 3.65a9.059 9.059 0 0 1 -2.96-.5 2.737 2.737 0 0 1 -.04-.5 3 3 0 0 1 4.4-2.65z" fill="#f8664f"/><path d="m18 32a2 2 0 0 1 -4 0 1.9 1.9 0 0 1 .23-.92l2.79-.8a2 2 0 0 1 .98 1.72z" fill="#f89c8d"/><path d="m20.2 40.48-.2.52a9 9 0 0 1 -9-9l1.05-.3a15.986 15.986 0 0 0 8.15 8.78z" fill="#fcbc04"/><path d="m20.2 40.48-.2.52a9.059 9.059 0 0 1 -2.96-.5 2.737 2.737 0 0 1 -.04-.5 2.9 2.9 0 0 1 .29-1.28 15.337 15.337 0 0 0 2.91 1.76z" fill="#cc5144"/><path d="m25 28-1.52 3.95a2.908 2.908 0 0 1 -1.34-.59 3.478 3.478 0 0 0 .21-.48l.92-2.39z" fill="#f8664f"/></g></g></g></g><g id="Outline_copy" data-name="Outline copy"><g fill="#464a51"><path d="m33 50a1 1 0 0 0 -1 1v10a1 1 0 0 0 2 0v-10a1 1 0 0 0 -1-1z"/><path d="m55 50a1 1 0 0 0 -1 1v10a1 1 0 0 0 2 0v-10a1 1 0 0 0 -1-1z"/><circle cx="49" cy="23" r="1"/><circle cx="46" cy="52" r="1"/><circle cx="46" cy="57" r="1"/><circle cx="39" cy="23" r="1"/><path d="m40.6 29.2a1 1 0 1 0 -1.2 1.6 7.7 7.7 0 0 0 9.2 0 1 1 0 1 0 -1.2-1.6 5.7 5.7 0 0 1 -6.8 0z"/><path d="m40 10a1 1 0 0 0 0 2h8a1 1 0 0 0 1-1v-4a1 1 0 0 0 -1-1h-8a1 1 0 0 0 0 2h7v2z"/><path d="m53 37h-2v-1.521a10.986 10.986 0 0 0 4-8.479v-7.184a3 3 0 0 0 2-2.816v-2a1 1 0 0 0 -1-1h-23v-3a7.008 7.008 0 0 1 7-7h8a7.008 7.008 0 0 1 7 7 1 1 0 0 0 2 0 9.01 9.01 0 0 0 -9-9h-8a9.01 9.01 0 0 0 -9 9v3h-2a3 3 0 0 0 0 6h24v7a9 9 0 0 1 -18 0v-4a1 1 0 0 0 -2 0v4a10.983 10.983 0 0 0 4 8.479v1.521h-2a8.961 8.961 0 0 0 -5 1.54v-3.54a1 1 0 0 0 -2 0v10a3 3 0 0 1 -3 3h-17a4 4 0 0 1 -4-4v-3a1 1 0 0 0 -2 0v3a6.006 6.006 0 0 0 6 6h.1a5.009 5.009 0 0 0 4.9 4h3.307l2.756 7.351a1 1 0 0 0 .937.649.986.986 0 0 0 .351-.065 1 1 0 0 0 .585-1.287l-2.493-6.648h3.939l3.723 7.447a1 1 0 0 0 1.895-.447v-12.026a4.977 4.977 0 0 0 2-3.974v-3.873a6.99 6.99 0 0 1 5-2.127h1.73a4.316 4.316 0 0 0 .1 4.883l3.356 4.7a1 1 0 0 0 .8.418h.014a1 1 0 0 0 .8-.4l2.2-2.934 2.2 2.933a1 1 0 0 0 .8.4h.012a1 1 0 0 0 .8-.418l3.357-4.7a4.316 4.316 0 0 0 .101-4.882h1.73a7.008 7.008 0 0 1 7 7v15a1 1 0 0 0 2 0v-15a9.01 9.01 0 0 0 -9-9zm-25-20a1 1 0 0 1 1-1h26v1a1 1 0 0 1 -1 1h-25a1 1 0 0 1 -1-1zm-15 35a3.006 3.006 0 0 1 -2.829-2h8.829a3.006 3.006 0 0 1 2.829 2zm13 4.764-2.03-4.064a4.946 4.946 0 0 0 -1-2.7h2.03a5 5 0 0 0 1-.1zm18-18.764a10.928 10.928 0 0 0 5-1.214v1.745l-5 4.169-5-4.167v-1.747a10.928 10.928 0 0 0 5 1.214zm-2.981 8.307-2.562-3.586a2.334 2.334 0 0 1 -.259-2.254l4.432 3.693zm8.524-3.586-2.563 3.586-1.61-2.147 4.43-3.693a2.337 2.337 0 0 1 -.257 2.254z"/><path d="m3 38a1 1 0 0 0 1-1v-10a3 3 0 0 1 3-3h18a3 3 0 0 1 3 3v4a1 1 0 0 0 2 0v-4a5.006 5.006 0 0 0 -5-5h-18a5.006 5.006 0 0 0 -5 5v10a1 1 0 0 0 1 1z"/><path d="m24.725 27.039-13.865 3.961h-1.678a3 3 0 0 0 -2.31 1.082 2.96 2.96 0 0 0 -.646 2.434 14.045 14.045 0 0 0 11.258 11.258 2.95 2.95 0 0 0 2.431-.646 3.011 3.011 0 0 0 1.085-2.315v-1.627l4.934-12.827a1 1 0 0 0 -1.209-1.32zm-1.825 3.625a1.977 1.977 0 0 1 -.708-.823l1.152-.329zm-3.577 9.3a7.863 7.863 0 0 1 -1.3-.222 2 2 0 0 1 1.977-1.742c.026 0 .052.009.078.01zm.677-3.964a4 4 0 0 0 -3.859 3 8.014 8.014 0 0 1 -4.106-6.26l1.011-.289a2.994 2.994 0 0 0 5.954-.451 2.964 2.964 0 0 0 -.266-1.17l1.53-.437a4 4 0 0 0 1.915 2.155l-1.363 3.543a3.9 3.9 0 0 0 -.816-.091zm-3.218-4.612a.983.983 0 0 1 .218.612 1 1 0 0 1 -2 0 .8.8 0 0 1 .027-.11zm2.218 11.425a1.016 1.016 0 0 1 -.367.78.96.96 0 0 1 -.792.214 12.039 12.039 0 0 1 -9.648-9.648.958.958 0 0 1 .214-.8 1 1 0 0 1 .775-.359h.865a10.02 10.02 0 0 0 8.953 8.951z"/></g></g></g></svg>