<svg height="512pt" viewBox="-26 0 512 512" width="512pt" xmlns="http://www.w3.org/2000/svg"><path d="m52.964844 167.722656h406.070312v220.691406h-406.070312zm0 0" fill="#333"/><path d="m361.929688 344.277344h-211.859376l17.652344-35.3125h176.554688zm0 0" fill="#e7b900"/><path d="m176.550781 61.792969-26.480469 26.484375-26.484374-26.484375-44.136719 44.136719h-35.3125v-105.929688h123.585937l105.933594 105.929688c-14.628906 14.628906-38.339844 14.628906-52.964844 0l-70.621094-70.621094zm0 0" fill="#ffb398"/><path d="m97.105469 88.277344 35.308593 35.308594h35.308594l35.3125-35.308594-26.484375-26.484375-26.480469 26.484375-26.484374-26.484375zm0 0" fill="#fe946f"/><path d="m0 0h44.136719v105.929688h-44.136719zm0 0" fill="#29485a"/><path d="m335.449219 273.65625h-158.898438v-8.828125c0-43.878906 35.570313-79.449219 79.449219-79.449219s79.449219 35.570313 79.449219 79.449219zm0 0" fill="#ffd422"/><path d="m273.65625 141.242188h-35.3125v17.65625h8.828125v26.480468h17.65625v-26.480468h8.828125zm0 0" fill="#ff0c38"/><path d="m238.34375 388.414062h35.3125v88.277344h-35.3125zm0 0" fill="#4d4d4d"/><path d="m141.242188 512h229.515624l-97.101562-35.308594h-35.3125zm0 0" fill="#808080"/><g fill="#fff"><path d="m223.097656 235.40625-13.152344-11.777344c11.714844-13.085937 28.5-20.59375 46.054688-20.59375v17.65625c-12.539062-.003906-24.53125 5.359375-32.902344 14.714844zm0 0"/><path d="m211.863281 264.828125h-17.65625c0-7.070313 1.183594-13.996094 3.515625-20.597656l16.648438 5.886719c-1.664063 4.707031-2.507813 9.65625-2.507813 14.710937zm0 0"/><path d="m223.097656 235.40625-13.152344-11.777344c11.714844-13.085937 28.5-20.59375 46.054688-20.59375v17.65625c-12.539062-.003906-24.53125 5.359375-32.902344 14.714844zm0 0"/><path d="m211.863281 264.828125h-17.65625c0-7.070313 1.183594-13.996094 3.515625-20.597656l16.648438 5.886719c-1.664063 4.707031-2.507813 9.65625-2.507813 14.710937zm0 0"/></g></svg>