<svg height="512pt" viewBox="0 -46 512 512" width="512pt" xmlns="http://www.w3.org/2000/svg"><path d="m502 128-26.671875 13.328125-13.328125 26.671875-13.328125-26.671875-26.671875-13.328125 26.671875-13.328125 13.328125-26.671875 13.328125 26.671875zm0 0" fill="#f5b955"/><path d="m482 370c11.050781 0 20 8.949219 20 20 0 11.039062-8.960938 20-20 20h-452c-11.050781 0-20-8.949219-20-20 0-11.039062 8.960938-20 20-20zm0 0" fill="#ffde85"/><g fill="#f5b955"><path d="m472 360v10h-432v-10c0-115.980469 100.019531-210 216-210s216 94.019531 216 210zm0 0"/><path d="m286 120c0 16.570312-13.429688 30-30 30s-30-13.429688-30-30 13.429688-30 30-30 30 13.429688 30 30zm0 0"/><path d="m130 70-45 15-15 45-15-45-45-15 45-15 15-45 15 45zm0 0"/></g><path d="m276 180c-5.519531 0-10 4.480469-10 10s4.480469 10 10 10 10-4.480469 10-10-4.480469-10-10-10zm0 0"/><path d="m482 360c0-110.859375-86.605469-201.773438-192.902344-217.5625 4.351563-6.402344 6.902344-14.128906 6.902344-22.4375 0-22.054688-17.945312-40-40-40s-40 17.945312-40 40c0 8.308594 2.550781 16.035156 6.902344 22.4375-105.875 15.726562-192.902344 106.328125-192.902344 217.5625-16.574219 0-30 13.425781-30 30 0 16.542969 13.457031 30 30 30h452c16.574219 0 30-13.425781 30-30 0-16.542969-13.457031-30-30-30zm-246-240c0-11.027344 8.972656-20 20-20s20 8.972656 20 20-8.972656 20-20 20-20-8.972656-20-20zm20 40c110.136719 0 206 89.082031 206 200h-412c0-108.410156 94.335938-200 206-200zm226 240h-452c-5.515625 0-10-4.484375-10-10 0-5.519531 4.480469-10 10-10h452c5.515625 0 10 4.484375 10 10 0 5.519531-4.480469 10-10 10zm0 0"/><path d="m426.015625 285.867188c-18.78125-41.394532-59.132813-76.847657-107.9375-94.832032-5.179687-1.910156-10.929687.746094-12.839844 5.929688-1.910156 5.179687.742188 10.929687 5.925781 12.839844 43.238282 15.929687 80.269532 48.242187 96.640626 84.328124 2.285156 5.03125 8.214843 7.253907 13.238281 4.972657 5.027343-2.28125 7.257812-8.207031 4.972656-13.238281zm0 0"/><path d="m506.472656 119.054688-23.6875-11.839844-11.839844-23.6875c-1.695312-3.386719-5.15625-5.527344-8.945312-5.527344s-7.25 2.140625-8.945312 5.527344l-11.839844 23.6875-23.6875 11.839844c-3.386719 1.695312-5.527344 5.15625-5.527344 8.945312s2.140625 7.25 5.527344 8.945312l23.6875 11.839844 11.839844 23.6875c1.695312 3.386719 5.15625 5.527344 8.945312 5.527344s7.25-2.140625 8.945312-5.527344l11.839844-23.6875 23.6875-11.839844c3.386719-1.695312 5.527344-5.15625 5.527344-8.945312s-2.140625-7.25-5.527344-8.945312zm-35.613281 13.332031c-1.9375.964843-3.507813 2.535156-4.476563 4.472656l-4.382812 8.773437-4.386719-8.773437c-.964843-1.9375-2.535156-3.507813-4.472656-4.472656l-8.773437-4.386719 8.773437-4.386719c1.9375-.964843 3.507813-2.535156 4.472656-4.472656l4.386719-8.773437 4.386719 8.773437c.964843 1.9375 2.535156 3.507813 4.472656 4.472656l8.773437 4.386719zm0 0"/><path d="m47.09375 92.90625 13.417969 40.253906c1.363281 4.085938 5.183593 6.839844 9.488281 6.839844s8.125-2.753906 9.488281-6.839844l13.417969-40.253906 40.253906-13.417969c4.085938-1.363281 6.839844-5.183593 6.839844-9.488281s-2.753906-8.125-6.839844-9.488281l-40.253906-13.417969-13.417969-40.253906c-1.363281-4.085938-5.183593-6.839844-9.488281-6.839844s-8.125 2.753906-9.488281 6.839844l-13.417969 40.253906-40.253906 13.417969c-4.085938 1.363281-6.839844 5.183593-6.839844 9.488281s2.753906 8.125 6.839844 9.488281zm11.066406-28.417969c2.988282-.996093 5.332032-3.339843 6.328125-6.328125l5.511719-16.539062 5.511719 16.539062c.996093 2.988282 3.339843 5.332032 6.328125 6.328125l16.539062 5.511719-16.539062 5.511719c-2.988282.996093-5.332032 3.339843-6.328125 6.328125l-5.511719 16.539062-5.511719-16.539062c-.996093-2.988282-3.339843-5.332032-6.328125-6.328125l-16.539062-5.511719zm0 0"/></svg>